PathFileType	4	(X/Y/Z)	Walk3.trc
DataRate	CameraRate	NumFrames	NumMarkers	Units	OrigDataRate	OrigDataStartFrame	OrigNumFrames
200.000000	200.000000	4	60	mm	200.000000	388	799
Frame#	Times		LToe		RCAR		RWRU		LLFC		RWRR		LFA1		RACR1		LUA1		STRN		LACR1		LElbow		RTH3		RLFC		LCAR		RFA1		RTB2		RToe		RFHD		RMT1		RMFC		LWRU		RTH2		RTB3		RMT5		LPSI		C7		LWRR		RPSI		RTB1		LTB1		RCAL		LTH3		LFHD		RTB4		LTB4		RASI		LTH4		RMMAL		LMT1		RLMAL		CLAV		LMFC		LTH2		LBHD		RBHD		RElbow		LTB2		LTB3		RUA1		RBack		LMMAL		RTH4		T10		LTH1		LCAL		RTH1		LMT5		LElbowM		RElbowM		LLMAL
			X1	Y1	Z1	X2	Y2	Z2	X3	Y3	Z3	X4	Y4	Z4	X5	Y5	Z5	X6	Y6	Z6	X7	Y7	Z7	X8	Y8	Z8	X9	Y9	Z9	X10	Y10	Z10	X11	Y11	Z11	X12	Y12	Z12	X13	Y13	Z13	X14	Y14	Z14	X15	Y15	Z15	X16	Y16	Z16	X17	Y17	Z17	X18	Y18	Z18	X19	Y19	Z19	X20	Y20	Z20	X21	Y21	Z21	X22	Y22	Z22	X23	Y23	Z23	X24	Y24	Z24	X25	Y25	Z25	X26	Y26	Z26	X27	Y27	Z27	X28	Y28	Z28	X29	Y29	Z29	X30	Y30	Z30	X31	Y31	Z31	X32	Y32	Z32	X33	Y33	Z33	X34	Y34	Z34	X35	Y35	Z35	X36	Y36	Z36	X37	Y37	Z37	X38	Y38	Z38	X39	Y39	Z39	X40	Y40	Z40	X41	Y41	Z41	X42	Y42	Z42	X43	Y43	Z43	X44	Y44	Z44	X45	Y45	Z45	X46	Y46	Z46	X47	Y47	Z47	X48	Y48	Z48	X49	Y49	Z49	X50	Y50	Z50	X51	Y51	Z51	X52	Y52	Z52	X53	Y53	Z53	X54	Y54	Z54	X55	Y55	Z55	X56	Y56	Z56	X57	Y57	Z57	X58	Y58	Z58	X59	Y59	Z59	X60	Y60	Z60

388	1.94	-248.8	125.51	-43.835	-513.57	892.52	349.61	-582.9	905.75	360.91	-614.81	493.3	-133.49	-533.46	933.95	291.44	-768.49	1012.8	-295.65	-740.05	1483.8	212.01	-782.56	1316.6	-234.89	-625.25	1271.7	29.833	-755.68	1502.5	-160.6	-834.61	1150.2	-272.76	-905.96	642.17	214.75	-932.08	503.65	200.29	-746.73	845.39	-317.44	-619.49	1046.7	336.01	-963.5	264.01	166.52	-876.91	30.343	91.426	-627.76	1705.6	90.183	-925.65	47.54	77.854	-929.11	500.55	49.952	-813.91	886.76	-303.12	-834.13	715.97	229.38	-993.63	190.41	97.357	-976.43	27.228	172.74	-909.45	1050	-50.448	-853.7	1537.6	35.759	-729.78	881.59	-262.27	-919.42	1051.5	57.605	-925.78	348.98	115.1	-521.26	373.51	-30.661	-1149.5	63.231	88.335	-650.44	629.4	-167.55	-625.59	1707.4	-16.302	-959.79	269.3	105.5	-495.54	292.16	-28.458	-717.89	1019.3	200.43	-679.12	710.58	-184.74	-1046.8	109.25	40.931	-300.27	106.06	-29.458	-1085.1	87.137	131.72	-687.27	1448.6	14.879	-607.92	490.72	9.6301	-624.84	733.39	-172.31	-786.06	1663.6	-40.116	-794.48	1663.8	101.24	-740.47	1144.5	344.57	-475.57	297.01	-88.023	-467.09	210.94	-27.679	-729.92	1306.4	291.51	-906.48	1416.6	158.34	-447.24	110.59	10.266	-893.5	723.88	223.3	-897.51	1181	10.943	-708.45	792.51	-194.52	-507.56	32.117	-49.354	-879.16	810.56	234.51	-327.68	75.271	-111.4	-860.31	1126.1	-185.13	-778.38	1108.6	260.56	-455.95	78.943	-88.594
389	1.945	-244.63	121.45	-43.15	-507.63	891.63	348.93	-576.98	904.82	360.21	-608.58	492.5	-133.18	-527.52	933.05	290.79	-762.98	1011.5	-295.87	-734.55	1482.8	211.41	-776.64	1315.6	-235.51	-619.18	1271	29.27	-749.79	1501.5	-161.31	-828.67	1149.1	-273.18	-901.2	641.97	214.44	-927.98	503.57	200.05	-741.84	843.86	-317.42	-613.61	1045.7	335.31	-961.46	264.19	166.57	-876.89	30.327	91.394	-622.2	1704.8	89.612	-925.52	47.536	77.927	-924.97	500.39	49.78	-808.87	885.62	-303.46	-829.01	715.47	228.93	-992.25	190.75	97.508	-976.34	27.216	172.77	-903.22	1049.1	-51.272	-848.05	1536.7	35.011	-725.01	880.03	-262.14	-913.16	1050.7	56.783	-923.01	348.75	115.07	-515.65	372.44	-30.035	-1149.2	64.882	88.606	-643.77	629.02	-167.4	-619.99	1706.6	-16.846	-957.73	269.39	105.5	-490.44	290.97	-27.656	-711.87	1018.2	199.96	-672.6	710.05	-185.01	-1046.1	110.06	41.164	-296.27	102.66	-28.605	-1084.6	88.241	131.95	-681.48	1447.7	14.27	-601.47	490.39	9.8126	-618.19	732.99	-173.19	-780.45	1662.7	-40.669	-788.87	1662.9	100.7	-734.65	1143.5	343.87	-470.25	295.63	-87.166	-462.44	209.62	-26.705	-724.25	1305.4	290.79	-900.83	1415.4	157.44	-443.11	109.16	11.408	-888.37	723.62	223.02	-891.37	1180	10.167	-702	791.94	-195.05	-504.55	32.069	-48.171	-873.65	810.25	234.21	-324.34	72.345	-110.5	-854.48	1125.1	-185.58	-772.49	1107.5	259.83	-452.38	77.766	-87.445
390	1.95	-240.8	116.95	-42.35	-501.8	890.72	348.3	-571.16	903.87	359.54	-602.26	491.87	-132.9	-521.66	932.11	290.16	-757.41	1010.2	-296.11	-729.02	1481.8	210.78	-770.69	1314.6	-236.15	-613.09	1270.4	28.657	-743.88	1500.6	-162.05	-822.67	1148	-273.61	-896.29	641.76	214.09	-923.72	503.49	199.78	-736.88	842.38	-317.41	-607.79	1044.8	334.6	-959.32	264.42	166.63	-876.87	30.313	91.357	-616.6	1704	89.026	-925.38	47.527	78	-920.69	500.24	49.59	-803.76	884.51	-303.82	-823.76	714.98	228.46	-990.79	191.13	97.646	-976.23	27.213	172.78	-897	1048.4	-52.066	-842.36	1535.8	34.245	-720.19	878.52	-262.01	-906.89	1050	55.991	-920.12	348.54	115.01	-510.16	371.42	-29.401	-1148.8	66.649	88.888	-637.03	628.78	-167.2	-614.37	1705.9	-17.4	-955.59	269.51	105.49	-485.54	289.81	-26.866	-705.83	1017.3	199.36	-666	709.67	-185.21	-1045.3	110.92	41.402	-292.65	98.919	-27.689	-1084	89.428	132.2	-675.65	1447	13.629	-595.06	490.16	9.9565	-611.49	732.74	-173.99	-774.82	1661.9	-41.237	-783.24	1662.1	100.14	-728.86	1142.5	343.15	-465.03	294.29	-86.281	-458.05	208.3	-25.759	-718.58	1304.4	290.06	-895.16	1414.3	156.52	-439.37	107.7	12.473	-883.13	723.36	222.7	-885.22	1179	9.395	-695.48	791.49	-195.55	-502	32.184	-47.161	-868.03	809.94	233.9	-321.37	69.242	-109.59	-848.6	1124.2	-186.07	-766.63	1106.4	259.07	-449.17	76.652	-86.389
391	1.955	-237.28	112.12	-41.467	-496.07	889.77	347.71	-565.45	902.91	358.87	-595.84	491.43	-132.68	-515.88	931.15	289.56	-751.78	1008.9	-296.36	-723.47	1481	210.15	-764.7	1313.6	-236.81	-606.99	1269.8	27.994	-737.97	1499.7	-162.81	-816.62	1147	-274.07	-891.25	641.55	213.72	-919.29	503.41	199.49	-731.85	840.95	-317.4	-602.02	1043.8	333.91	-957.07	264.71	166.7	-876.85	30.301	91.314	-610.97	1703.3	88.422	-925.24	47.511	78.071	-916.25	500.09	49.383	-798.58	883.45	-304.2	-818.4	714.51	227.95	-989.25	191.57	97.768	-976.11	27.223	172.77	-890.8	1047.7	-52.823	-836.64	1535	33.462	-715.3	877.07	-261.9	-900.62	1049.3	55.236	-917.12	348.35	114.94	-504.78	370.47	-28.783	-1148.4	68.541	89.174	-630.24	628.69	-166.96	-608.71	1705.2	-17.962	-953.34	269.67	105.46	-480.82	288.7	-26.111	-699.76	1016.3	198.65	-659.36	709.43	-185.34	-1044.5	111.86	41.643	-289.37	94.918	-26.737	-1083.3	90.705	132.45	-669.81	1446.2	12.957	-588.71	490.04	10.05	-604.76	732.63	-174.69	-769.15	1661.2	-41.819	-777.57	1661.3	99.573	-723.11	1141.6	342.4	-459.88	293.02	-85.396	-453.89	207.01	-24.864	-712.92	1303.5	289.3	-889.48	1413.3	155.56	-435.98	106.24	13.443	-877.76	723.09	222.37	-879.08	1178.1	8.6354	-688.92	791.17	-196.03	-499.84	32.459	-46.329	-862.32	809.63	233.56	-318.74	66.015	-108.71	-842.69	1123.3	-186.58	-760.79	1105.4	258.29	-446.26	75.622	-85.443
